# xmcd CD database file
#
# Track frame offsets:
#	187
#	20120
#	44502
#	68212
#	88695
#	101947
#	115270
#	133760
#	155855
#
# Disc length: 2330 seconds
#
# Revision: 0
# Processed by: cddbd v1.4PL0 Copyright (c) Steve Scherf et al.
# Submitted via: CDex 1.50beta10
#
DISCID=86091809
DTITLE=Kai Winding - J. J. Johnson - K. and J. J. - Israel
DYEAR=1968
DGENRE=Jazz
TTITLE0=My funny Valentine
TTITLE1=Israel
TTITLE2=Catherine's theme
TTITLE3=Am I blue - Sonnyboy
TTITLE4=Never my love
TTITLE5=Saturday night is the loneliest night of the week
TTITLE6=St. James infirmary
TTITLE7=Django
TTITLE8=Try to remember
EXTD=YEAR: 1968
EXTT0=
EXTT1=
EXTT2=
EXTT3=
EXTT4=
EXTT5=
EXTT6=
EXTT7=
EXTT8=
PLAYORDER=
